<svg width="138" height="52" viewBox="0 0 138 52" fill="none" xmlns="http://www.w3.org/2000/svg">
<path d="M0 5C0 2.23858 2.23858 0 5 0H133C135.761 0 138 2.23858 138 5V47C138 49.7614 135.761 52 133 52H5C2.23858 52 0 49.7614 0 47V5Z" fill="#8D5CF6"/>
<path d="M26.68 22.698V21.214H31.44V27.668C31.44 28.8067 31.1507 29.6607 30.572 30.23C29.9933 30.7993 29.2513 31.084 28.346 31.084C27.2073 31.084 26.2367 30.6827 25.434 29.88L26.372 28.578C27.0067 29.1847 27.6273 29.488 28.234 29.488C28.6633 29.488 29.0273 29.3433 29.326 29.054C29.634 28.7647 29.788 28.3307 29.788 27.752V22.698H26.68ZM41.2409 23.524C40.5783 22.8333 39.7616 22.488 38.7909 22.488C37.8203 22.488 36.9989 22.8333 36.3269 23.524C35.6643 24.2147 35.3329 25.0547 35.3329 26.044C35.3329 27.024 35.6643 27.8593 36.3269 28.55C36.9989 29.2407 37.8203 29.586 38.7909 29.586C39.7616 29.586 40.5783 29.2407 41.2409 28.55C41.9129 27.8593 42.2489 27.024 42.2489 26.044C42.2489 25.0547 41.9129 24.2147 41.2409 23.524ZM42.4589 29.656C41.4696 30.6173 40.2469 31.098 38.7909 31.098C37.3349 31.098 36.1123 30.6173 35.1229 29.656C34.1336 28.6853 33.6389 27.4813 33.6389 26.044C33.6389 24.5973 34.1336 23.3933 35.1229 22.432C36.1123 21.4613 37.3349 20.976 38.7909 20.976C40.2469 20.976 41.4696 21.4613 42.4589 22.432C43.4483 23.3933 43.9429 24.5973 43.9429 26.044C43.9429 27.4813 43.4483 28.6853 42.4589 29.656ZM46.2267 21.214H47.8787V31H46.2267V21.214ZM58.1241 21.214H59.7761V31H57.9841L52.4401 23.86V31H50.7881V21.214H52.4401L58.1241 28.522V21.214ZM68.931 28.76C69.379 29.2827 69.9857 29.544 70.751 29.544C71.5163 29.544 72.123 29.2827 72.571 28.76C73.019 28.2373 73.243 27.528 73.243 26.632V21.214H74.895V26.702C74.895 28.1113 74.5077 29.1987 73.733 29.964C72.9583 30.72 71.9643 31.098 70.751 31.098C69.5377 31.098 68.5437 30.72 67.769 29.964C66.9943 29.1987 66.607 28.1113 66.607 26.702V21.214H68.259V26.632C68.259 27.528 68.483 28.2373 68.931 28.76ZM80.6331 22.502C80.1571 22.502 79.7651 22.6 79.4571 22.796C79.1491 22.992 78.9951 23.2907 78.9951 23.692C78.9951 24.084 79.1491 24.3873 79.4571 24.602C79.7651 24.8073 80.4184 25.0313 81.4171 25.274C82.4251 25.5167 83.1811 25.8573 83.6851 26.296C84.1984 26.7347 84.4551 27.3833 84.4551 28.242C84.4551 29.0913 84.1331 29.782 83.4891 30.314C82.8451 30.846 82.0004 31.112 80.9551 31.112C79.4244 31.112 78.0664 30.5847 76.8811 29.53L77.9171 28.284C78.9064 29.1427 79.9331 29.572 80.9971 29.572C81.5291 29.572 81.9491 29.46 82.2571 29.236C82.5744 29.0027 82.7331 28.6993 82.7331 28.326C82.7331 27.9433 82.5838 27.6493 82.2851 27.444C81.9958 27.2293 81.4918 27.038 80.7731 26.87C80.0544 26.6927 79.5084 26.534 79.1351 26.394C78.7618 26.2447 78.4304 26.0533 78.1411 25.82C77.5624 25.3813 77.2731 24.7093 77.2731 23.804C77.2731 22.8987 77.5998 22.2033 78.2531 21.718C78.9158 21.2233 79.7324 20.976 80.7031 20.976C81.3284 20.976 81.9491 21.0787 82.5651 21.284C83.1811 21.4893 83.7131 21.7787 84.1611 22.152L83.2791 23.398C82.9898 23.1367 82.5978 22.922 82.1031 22.754C81.6084 22.586 81.1184 22.502 80.6331 22.502Z" fill="white"/>
<g clip-path="url(#clip0_2689_5248)">
<path fill-rule="evenodd" clip-rule="evenodd" d="M101 26C101 25.8106 101.079 25.6289 101.22 25.495C101.36 25.3611 101.551 25.2858 101.75 25.2858H110.438L107.218 22.2207C107.077 22.0866 106.998 21.9047 106.998 21.7151C106.998 21.5254 107.077 21.3435 107.218 21.2094C107.359 21.0753 107.55 21 107.749 21C107.948 21 108.139 21.0753 108.28 21.2094L112.78 25.4944C112.85 25.5607 112.905 25.6395 112.943 25.7263C112.981 25.8131 113 25.9061 113 26C113 26.0939 112.981 26.1869 112.943 26.2737C112.905 26.3605 112.85 26.4393 112.78 26.5056L108.28 30.7906C108.139 30.9247 107.948 31 107.749 31C107.55 31 107.359 30.9247 107.218 30.7906C107.077 30.6565 106.998 30.4746 106.998 30.2849C106.998 30.0953 107.077 29.9134 107.218 29.7793L110.438 26.7142H101.75C101.551 26.7142 101.36 26.6389 101.22 26.505C101.079 26.3711 101 26.1894 101 26Z" fill="white"/>
</g>
<defs>
<clipPath id="clip0_2689_5248">
<rect width="12" height="10" fill="white" transform="translate(101 21)"/>
</clipPath>
</defs>
</svg>
